<svg xmlns="http://www.w3.org/2000/svg" width="27" height="29" fill="none" viewBox="0 0 27 29"><g fill="#fff" clip-path="url(#clip0_52_1)"><path d="m19.674 7.557.026.205-.3.063-.04.436h.36l.478-.047.247-.3-.262-.104-.144-.169-.216-.357-.103-.506-.406.085-.114.178v.2l.195.137Z"/><path d="m19.328 7.725.022-.273-.238-.105-.333.078-.247.405v.263h.288Z"/><path d="m12.47 8.886-.072.193h-.355v.187h.084l.012.092.218-.019.136-.086.036-.174.176-.016.069-.146-.162-.034Z"/><path d="m11.556 9.226-.014.183.258-.022.026-.184-.154-.124Z"/><path d="M26.997 15.07a13.948 13.948 0 0 0-.954-4.952q-.05-.134-.104-.265a13.8 13.8 0 0 0-3.359-4.836c-2.4-2.231-5.586-3.593-9.08-3.593-3.523 0-6.733 1.386-9.14 3.652A13.902 13.902 0 0 0 0 15.212C0 22.815 6.056 29 13.5 29c5.236 0 9.782-3.063 12.02-7.525a13.8 13.8 0 0 0 1.269-3.854c.136-.782.21-1.588.21-2.41q0-.07-.002-.142m-2.541-5.512.078-.09q.154.306.29.621l-.127-.005-.241.034Zm-1.95-2.405.001-.616q.319.344.612.711l-.243.37-.85-.008-.053-.181ZM6.22 5.622v-.023h.27l.024-.095h.443v.197l-.128.174h-.61Zm.432.615s.27-.047.294-.047 0 .276 0 .276l-.61.039-.116-.142Zm18.664 5.474h-.988l-.602-.458-.633.063v.395h-.2l-.217-.158-1.098-.284v-.726l-1.39.11-.43.237h-.552l-.271-.028-.67.38v.715l-1.37 1.01.114.43h.278l-.074.412-.195.073-.01 1.073 1.183 1.377h.515l.032-.084h.926l.267-.253h.525l.288.295.783.083-.104 1.063.87 1.567-.458.893.031.421.36.367v1.012l.473.65v.84h.409c-2.274 2.852-5.736 4.68-9.609 4.68-6.83 0-12.388-5.677-12.388-12.655 0-1.756.353-3.43.988-4.952v-.395l.444-.549q.23-.444.494-.868l.02.23-.514.638q-.24.462-.443.944v.72l.515.254v1l.493.86.402.064.052-.295-.474-.746-.093-.726h.278l.117.747.685 1.02-.177.33.435.68 1.081.273v-.179l.433.063-.041.315.34.064.524.146.742.863.946.073.093.789-.648.462-.03.705-.093.43.937 1.2.072.41s.34.094.381.094.762.558.762.558v2.166l.257.073-.175 1 .433.589-.08.99.571 1.026.734.654.737.014.072-.242-.542-.467.032-.231.097-.284.02-.289-.366-.011-.185-.237.304-.299.041-.226-.34-.099.02-.21.485-.075.736-.361.247-.463.772-1.01-.175-.789.237-.42.71.022.478-.387.155-1.523.53-.688.093-.442-.484-.158-.32-.535-1.09-.01-.865-.338-.041-.63-.29-.515-.782-.012-.452-.725-.401-.2-.02.22-.731.045-.268-.38-.762-.159-.628.742-.989-.172-.071-1.137-.722-.126.29-.558-.083-.32-.948.646-.596-.074-.213-.476.13-.49.329-.619.756-.391h1.462l-.004.454.525.25-.041-.778.378-.39.764-.512.053-.36.761-.81.81-.459-.071-.06.549-.527.2.054.093.118.208-.236.051-.023-.228-.033-.232-.079v-.227l.123-.102h.27l.124.055.107.222.131-.02v-.02l.038.013.38-.06.054-.189.216.056v.205l-.2.141.03.225.687.217.002.008.158-.013.01-.305-.544-.253-.031-.147.452-.157.02-.443-.473-.294-.031-.746-.649.326h-.237l.063-.568-.883-.213-.365.282v.86l-.657.213-.263.56-.286.047v-.717l-.617-.087-.309-.205-.124-.465 1.104-.66.54-.168.055.371.3-.016.024-.186.315-.046.005-.066-.135-.057-.031-.197.387-.034.234-.248.012-.018.003.001.071-.075.814-.105.36.312-.944.513 1.2.29.156-.41h.525l.185-.358-.37-.094v-.452l-1.164-.527-.803.095-.453.242.031.589-.474-.074-.072-.325.453-.421-.823-.042-.237.073-.102.284.308.053-.061.315-.525.032-.082.21-.761.021s-.022-.44-.052-.44l.597-.012.454-.452-.248-.127-.33.327-.546-.032-.33-.463h-.7l-.73.558h.67l.06.2-.173.165.741.021.114.273-.835-.031-.04-.21-.525-.116-.279-.158-.624.005A12.15 12.15 0 0 1 13.5 2.558c3.133 0 5.995 1.196 8.179 3.161l-.147.269-.572.228-.24.267.055.312.295.042.177.453.509-.209.084.607h-.153l-.418-.063-.463.08-.448.646-.64.103-.094.56.27.065-.077.36-.637-.13-.584.13-.123.332.1.696.343.164.575-.003.388-.036.118-.315.607-.805.4.084.392-.363.073.283.968.667-.119.162-.435-.024.167.243.268.06.315-.134-.007-.387.14-.071-.113-.122-.645-.367-.17-.488h.536l.172.173.462.407.02.491.478.521.178-.713.332-.185.062.583.324.363.646-.011q.188.492.335 1.003ZM7.363 7.688l.325-.158.293.072-.101.402-.317.103Zm1.721.947v.26h-.74l-.278-.079.07-.181.355-.15h.486v.15Zm.341.363v.252l-.185.122-.231.044v-.418Zm-.209-.103v-.3l.255.237Zm.116.607v.246l-.177.18h-.394l.062-.275.186-.016.039-.095Zm-.98-.504h.41l-.526.749-.216-.119.046-.315Zm1.676.418v.245h-.394l-.108-.16v-.228h.031Zm-.364-.337.112-.12.19.12-.152.127Zm15.853 3.27.039-.046.049.215Z"/><path d="M2.1 9.865v.395q.204-.484.443-.945Z"/></g><defs><clipPath id="clip0_52_1"><path fill="#fff" d="M0 0h27v29H0Z"/></clipPath></defs></svg>